<svg id="Layer_1" enable-background="new 0 0 58.312 58.309" height="512" viewBox="0 0 58.312 58.309" width="512" xmlns="http://www.w3.org/2000/svg" class="hovered-paths"><g><circle cx="29.186" cy="29.155" r="3" data-original="#000000" class="hovered-path active-path" style="fill:#0ABDE3" data-old_color="#000000"></circle><path d="m44.186 30.155c-.552 0-1-.447-1-1s.448-1 1-1h14.156l-15.139-4.817c.726-1.45 1.452-2.9 2.178-4.35 1.209-2.414 2.417-4.827 3.626-7.241.346-.692 1.2-1.871 1.166-2.652-.021-.499-.485-.936-.984-.929-.562.008-1.21.467-1.714.716-.615.303-1.229.606-1.843.909-1.705.843-3.409 1.69-5.11 2.541-.47.235-5.571 2.638-5.522 2.792l-4.812-15.125v14.155c0 .553-.448 1-1 1s-1-.447-1-1v-14.155l-4.816 15.138c-.392-.196-.784-.393-1.177-.589-.962-.482-1.925-.964-2.888-1.446-1.211-.607-2.423-1.213-3.635-1.82-1.14-.571-2.279-1.141-3.418-1.712-.747-.374-1.493-.747-2.239-1.121-.508-.255-1.1-.46-1.556.035-.51.553-.125 1.2.147 1.753.243.494.486.988.73 1.482.77 1.56 1.542 3.118 2.318 4.674.926 1.857 1.857 3.712 2.797 5.562.235.462.471.924.708 1.386l-15.126 4.813h14.156c.552 0 1 .447 1 1s-.448 1-1 1h-14.156l15.14 4.817c-.683 1.365-1.367 2.73-2.05 4.095-1.18 2.358-2.361 4.715-3.541 7.072-.287.572-.573 1.144-.86 1.717-.273.545-.746 1.218-.381 1.817.191.313.567.503.932.47.646-.058 1.389-.597 1.979-.888.67-.331 1.34-.662 2.01-.993 1.777-.88 3.552-1.763 5.324-2.652.406-.204 4.833-2.292 4.791-2.426l4.812 15.125v-14.155c0-.553.448-1 1-1s1 .447 1 1v14.157l4.816-15.138c1.395.698 2.79 1.397 4.185 2.095 2.378 1.191 4.756 2.381 7.134 3.572.807.404 2.799 1.835 3.588.99.737-.789-.521-2.532-.905-3.312-.79-1.603-1.584-3.204-2.382-4.803-1.125-2.254-2.256-4.505-3.407-6.747l15.126-4.813zm-6.132-8.454 7.474-7.474-4.255 8.498zm6.133-8.961-7.546 7.546-1.027-3.228c2.678-1.377 5.893-2.987 8.573-4.318zm-22.456 7.547-7.473-7.473 8.497 4.254zm-1.414 1.414-3.228 1.027c-1.377-2.679-2.987-5.894-4.318-8.573zm0 14.909-7.474 7.474 4.255-8.498zm-6.132 8.96 7.546-7.546 1.027 3.228c-2.679 1.377-5.894 2.987-8.573 4.318zm15.001-11.415c-2.757 0-5-2.243-5-5s2.243-5 5-5 5 2.243 5 5-2.244 5-5 5zm7.454 3.869 7.473 7.472-8.497-4.254zm1.414-1.414 3.228-1.027c1.416 2.753 3.011 5.936 4.323 8.578z" data-original="#000000" class="hovered-path active-path" style="fill:#0ABDE3" data-old_color="#000000"></path></g> </svg>